<?xml version="1.0" encoding="UTF-8"?>
<svg width="800" height="1200" xmlns="http://www.w3.org/2000/svg">
  <defs>
    <style>
      .box { fill: #f0f8ff; stroke: #2563eb; stroke-width: 2; }
      .process { fill: #dbeafe; stroke: #1d4ed8; stroke-width: 2; }
      .decision { fill: #fef3c7; stroke: #f59e0b; stroke-width: 2; }
      .terminal { fill: #dcfce7; stroke: #16a34a; stroke-width: 2; }
      .error { fill: #fee2e2; stroke: #dc2626; stroke-width: 2; }      .text { font-family: Arial, sans-serif; font-size: 10px; text-anchor: middle; }
      .small-text { font-family: Arial, sans-serif; font-size: 8px; text-anchor: middle; }
      .title { font-family: Arial, sans-serif; font-size: 16px; font-weight: bold; text-anchor: middle; }
      .arrow { stroke: #374151; stroke-width: 2; marker-end: url(#arrowhead); }
    </style>
    <marker id="arrowhead" markerWidth="10" markerHeight="7" refX="9" refY="3.5" orient="auto">
      <polygon points="0 0, 10 3.5, 0 7" fill="#374151" />
    </marker>
  </defs>
  
  <!-- Title -->
  <text x="400" y="30" class="title">ALGORITMO GENERAL DEL SISTEMA</text>
  
  <!-- Inicio -->
  <ellipse cx="400" cy="70" rx="60" ry="25" class="terminal"/>
  <text x="400" y="75" class="text">INICIO</text>
    <!-- Inicialización -->
  <rect x="300" y="120" width="200" height="50" class="process"/>
  <text x="400" y="140" class="text">Inicializar Sistema</text>
  <text x="400" y="155" class="text">(Frontend + Backend)</text>
    <!-- Configuración -->
  <rect x="300" y="190" width="200" height="50" class="process"/>
  <text x="400" y="210" class="text">Configurar Problema</text>
  <text x="400" y="225" class="text">(Dimensiones + Método)</text>
  
  <!-- Entrada de Datos -->
  <rect x="300" y="260" width="200" height="50" class="process"/>
  <text x="400" y="280" class="text">Capturar Datos</text>
  <text x="400" y="295" class="text">(Coeficientes + Restricciones)</text>
  
  <!-- Validación -->
  <polygon points="400,330 460,360 400,390 340,360" class="decision"/>
  <text x="400" y="365" class="text">¿Datos Válidos?</text>
    <!-- Error -->
  <rect x="520" y="335" width="140" height="50" class="error"/>
  <text x="590" y="355" class="text">Mostrar Error</text>
  <text x="590" y="370" class="text">y Corregir</text>
  
  <!-- Procesamiento -->
  <rect x="300" y="420" width="200" height="50" class="process"/>
  <text x="400" y="440" class="text">Serializar y Enviar</text>
  <text x="400" y="455" class="text">Petición HTTP</text>
    <!-- Selección de Método -->
  <polygon points="400,490 500,520 400,550 300,520" class="decision"/>
  <text x="400" y="520" class="text">Método?</text>
  <text x="400" y="535" class="small-text">Gran M / Dos Fases</text>
  
  <!-- Gran M -->
  <rect x="180" y="580" width="140" height="50" class="process"/>
  <text x="250" y="600" class="text">Ejecutar</text>
  <text x="250" y="615" class="text">Método Gran M</text>
  
  <!-- Dos Fases -->
  <rect x="480" y="580" width="140" height="50" class="process"/>
  <text x="550" y="600" class="text">Ejecutar</text>
  <text x="550" y="615" class="text">Método Dos Fases</text>
  
  <!-- Resolución Simplex -->
  <rect x="300" y="650" width="200" height="50" class="process"/>
  <text x="400" y="670" class="text">Proceso Iterativo</text>
  <text x="400" y="685" class="text">Simplex</text>
  
  <!-- Construcción Respuesta -->
  <rect x="300" y="720" width="200" height="50" class="process"/>
  <text x="400" y="740" class="text">Construir Respuesta</text>
  <text x="400" y="755" class="text">JSON</text>
  
  <!-- Visualización -->
  <rect x="300" y="790" width="200" height="50" class="process"/>
  <text x="400" y="810" class="text">Visualizar Resultados</text>
  <text x="400" y="825" class="text">(Tablas + Interpretación)</text>
  
  <!-- Fin -->
  <ellipse cx="400" cy="880" rx="60" ry="25" class="terminal"/>
  <text x="400" y="885" class="text">FIN</text>
  
  <!-- Arrows -->
  <line x1="400" y1="95" x2="400" y2="120" class="arrow"/>
  <line x1="400" y1="170" x2="400" y2="190" class="arrow"/>
  <line x1="400" y1="240" x2="400" y2="260" class="arrow"/>
  <line x1="400" y1="310" x2="400" y2="330" class="arrow"/>
  
  <!-- Decision arrows -->
  <line x1="460" y1="360" x2="520" y2="360" class="arrow"/>
  <text x="490" y="355" class="text">No</text>
  
  <line x1="400" y1="390" x2="400" y2="420" class="arrow"/>
  <text x="410" y="405" class="text">Sí</text>
  
  <!-- Return from error -->
  <line x1="580" y1="385" x2="580" y2="410" class="arrow"/>
  <line x1="580" y1="410" x2="400" y2="410" class="arrow"/>
  
  <line x1="400" y1="470" x2="400" y2="490" class="arrow"/>
    <!-- Method selection -->
  <line x1="350" y1="520" x2="250" y2="520" class="arrow"/>
  <line x1="250" y1="520" x2="250" y2="580" class="arrow"/>
  <text x="300" y="515" class="small-text">Gran M</text>
  
  <line x1="450" y1="520" x2="550" y2="520" class="arrow"/>
  <line x1="550" y1="520" x2="550" y2="580" class="arrow"/>
  <text x="500" y="515" class="small-text">Dos Fases</text>
  
  <!-- Convergence -->
  <line x1="250" y1="630" x2="250" y2="640" class="arrow"/>
  <line x1="250" y1="640" x2="400" y2="640" class="arrow"/>
  <line x1="400" y1="640" x2="400" y2="650" class="arrow"/>
  
  <line x1="550" y1="630" x2="550" y2="640" class="arrow"/>
  <line x1="550" y1="640" x2="400" y2="640" class="arrow"/>
  
  <line x1="400" y1="700" x2="400" y2="720" class="arrow"/>
  <line x1="400" y1="770" x2="400" y2="790" class="arrow"/>
  <line x1="400" y1="840" x2="400" y2="855" class="arrow"/>
</svg>
