<?xml version="1.0" encoding="UTF-8"?>
<svg width="1000" height="1000" xmlns="http://www.w3.org/2000/svg">
  <defs>
    <style>
      .frontend { fill: #dbeafe; stroke: #1d4ed8; stroke-width: 2; }
      .backend { fill: #dcfce7; stroke: #16a34a; stroke-width: 2; }
      .api { fill: #fef3c7; stroke: #f59e0b; stroke-width: 2; }
      .validation { fill: #f3e8ff; stroke: #9333ea; stroke-width: 2; }
      .calc { fill: #fecaca; stroke: #dc2626; stroke-width: 2; }      .text { font-family: Arial, sans-serif; font-size: 9px; text-anchor: middle; }
      .title { font-family: Arial, sans-serif; font-size: 16px; font-weight: bold; text-anchor: middle; }
      .component-title { font-family: Arial, sans-serif; font-size: 11px; font-weight: bold; text-anchor: middle; }
      .arrow { stroke: #374151; stroke-width: 2; marker-end: url(#arrowhead); }
      .bidirectional { stroke: #374151; stroke-width: 2; marker-end: url(#arrowhead); marker-start: url(#arrowhead); }
    </style>
    <marker id="arrowhead" markerWidth="10" markerHeight="7" refX="9" refY="3.5" orient="auto">
      <polygon points="0 0, 10 3.5, 0 7" fill="#374151" />
    </marker>
  </defs>
  
  <!-- Title -->
  <text x="500" y="30" class="title">ARQUITECTURA Y FLUJO DE DATOS DEL SISTEMA</text>
  
  <!-- Frontend Layer -->
  <rect x="50" y="70" width="250" height="200" class="frontend"/>
  <text x="175" y="90" class="component-title">FRONTEND (React + TypeScript)</text>
  
  <rect x="70" y="110" width="80" height="40" class="frontend"/>
  <text x="110" y="125" class="text">Interfaz</text>
  <text x="110" y="140" class="text">Usuario</text>
  
  <rect x="160" y="110" width="80" height="40" class="frontend"/>
  <text x="200" y="125" class="text">Gestión</text>
  <text x="200" y="140" class="text">Estado</text>
  
  <rect x="70" y="160" width="80" height="40" class="frontend"/>
  <text x="110" y="175" class="text">Validación</text>
  <text x="110" y="190" class="text">Tiempo Real</text>
  
  <rect x="160" y="160" width="80" height="40" class="frontend"/>
  <text x="200" y="175" class="text">Cliente</text>
  <text x="200" y="190" class="text">API</text>
  
  <rect x="115" y="210" width="80" height="40" class="frontend"/>
  <text x="155" y="225" class="text">Renderizado</text>
  <text x="155" y="240" class="text">Resultados</text>
  
  <!-- API Layer -->
  <rect x="350" y="70" width="300" height="200" class="api"/>
  <text x="500" y="90" class="component-title">API GATEWAY (FastAPI)</text>
  
  <rect x="370" y="110" width="80" height="40" class="api"/>
  <text x="410" y="125" class="text">Endpoint</text>
  <text x="410" y="140" class="text">/solve</text>
  
  <rect x="460" y="110" width="80" height="40" class="validation"/>
  <text x="500" y="125" class="text">Validación</text>
  <text x="500" y="140" class="text">de Datos</text>
  
  <rect x="550" y="110" width="80" height="40" class="api"/>
  <text x="590" y="125" class="text">Ruteo de</text>
  <text x="590" y="140" class="text">Métodos</text>
  
  <rect x="370" y="160" width="80" height="40" class="validation"/>
  <text x="410" y="175" class="text">Serialización</text>
  <text x="410" y="190" class="text">JSON</text>
  
  <rect x="460" y="160" width="80" height="40" class="api"/>
  <text x="500" y="175" class="text">Manejo</text>
  <text x="500" y="190" class="text">de Errores</text>
  
  <rect x="550" y="160" width="80" height="40" class="api"/>
  <text x="590" y="175" class="text">Logging</text>
  <text x="590" y="190" class="text">Operaciones</text>
  
  <rect x="415" y="210" width="80" height="40" class="validation"/>
  <text x="455" y="225" class="text">Respuesta</text>
  <text x="455" y="240" class="text">HTTP</text>
  
  <rect x="505" y="210" width="80" height="40" class="api"/>
  <text x="545" y="225" class="text">CORS</text>
  <text x="545" y="240" class="text">Middleware</text>
  
  <!-- Backend Layer -->
  <rect x="700" y="70" width="250" height="200" class="backend"/>
  <text x="825" y="90" class="component-title">BACKEND (Python)</text>
  
  <rect x="720" y="110" width="80" height="40" class="backend"/>
  <text x="760" y="125" class="text">Gran M</text>
  <text x="760" y="140" class="text">Solver</text>
  
  <rect x="810" y="110" width="80" height="40" class="backend"/>
  <text x="850" y="125" class="text">Dos Fases</text>
  <text x="850" y="140" class="text">Solver</text>
  
  <rect x="720" y="160" width="80" height="40" class="calc"/>
  <text x="760" y="175" class="text">Cálculo</text>
  <text x="760" y="190" class="text">Iterativo</text>
  
  <rect x="810" y="160" width="80" height="40" class="calc"/>
  <text x="850" y="175" class="text">Operaciones</text>
  <text x="850" y="190" class="text">Matriciales</text>
  
  <rect x="765" y="210" width="80" height="40" class="backend"/>
  <text x="805" y="225" class="text">Resultado</text>
  <text x="805" y="240" class="text">Final</text>
  
  <!-- Data Flow Arrows -->
  <line x1="300" y1="150" x2="350" y2="150" class="arrow"/>
  <text x="325" y="145" class="text">Petición</text>
  
  <line x1="350" y1="180" x2="300" y2="180" class="arrow"/>
  <text x="325" y="195" class="text">Respuesta</text>
  
  <line x1="650" y1="150" x2="700" y2="150" class="arrow"/>
  <text x="675" y="145" class="text">Datos</text>
  
  <line x1="700" y1="180" x2="650" y2="180" class="arrow"/>
  <text x="675" y="195" class="text">Resultado</text>
  
  <!-- Process Flow -->
  <rect x="50" y="320" width="900" height="600" stroke="#6b7280" stroke-width="2" fill="none"/>
  <text x="500" y="340" class="component-title">FLUJO DETALLADO DE PROCESAMIENTO</text>
    <!-- Step 1: Initialization -->
  <rect x="80" y="360" width="120" height="60" class="frontend"/>
  <text x="140" y="375" class="text">1. INICIALIZACIÓN</text>
  <text x="140" y="390" class="text">Estado inicial</text>
  <text x="140" y="405" class="text">Configuración UI</text>
  
  <!-- Step 2: Data Entry -->
  <rect x="220" y="360" width="120" height="60" class="frontend"/>
  <text x="280" y="375" class="text">2. ENTRADA DATOS</text>
  <text x="280" y="390" class="text">Formularios</text>
  <text x="280" y="405" class="text">Validación</text>
  
  <!-- Step 3: API Call -->
  <rect x="360" y="360" width="120" height="60" class="api"/>
  <text x="420" y="375" class="text">3. COMUNICACIÓN</text>
  <text x="420" y="390" class="text">Serialización</text>
  <text x="420" y="405" class="text">HTTP POST</text>
  
  <!-- Step 4: Method Selection -->
  <rect x="500" y="360" width="120" height="60" class="validation"/>
  <text x="560" y="375" class="text">4. SELECCIÓN</text>
  <text x="560" y="390" class="text">Método</text>
  <text x="560" y="405" class="text">Gran M / Dos Fases</text>
  
  <!-- Step 5: Processing -->
  <rect x="640" y="360" width="120" height="60" class="calc"/>
  <text x="700" y="375" class="text">5. PROCESAMIENTO</text>
  <text x="700" y="390" class="text">Algoritmo</text>
  <text x="700" y="405" class="text">Simplex</text>
  
  <!-- Step 6: Response -->
  <rect x="780" y="360" width="120" height="60" class="backend"/>
  <text x="840" y="375" class="text">6. RESPUESTA</text>
  <text x="840" y="390" class="text">Construcción</text>
  <text x="840" y="405" class="text">JSON</text>
  
  <!-- Detailed substeps -->
  <rect x="80" y="450" width="180" height="120" class="frontend"/>
  <text x="170" y="470" class="component-title">Frontend Detallado</text>
  <text x="90" y="490" class="text">• Configuración dinámica</text>
  <text x="90" y="505" class="text">• Matrices adaptables</text>
  <text x="90" y="520" class="text">• Validación tiempo real</text>
  <text x="90" y="535" class="text">• Gestión de estados</text>
  <text x="90" y="550" class="text">• Manejo de errores</text>
  
  <rect x="280" y="450" width="180" height="120" class="validation"/>
  <text x="370" y="470" class="component-title">Validación y API</text>
  <text x="290" y="490" class="text">• Validar dimensiones</text>
  <text x="290" y="505" class="text">• Verificar coeficientes</text>
  <text x="290" y="520" class="text">• Serializar a JSON</text>
  <text x="290" y="535" class="text">• Timeout control</text>
  <text x="290" y="550" class="text">• Error handling</text>
  
  <rect x="480" y="450" width="180" height="120" class="calc"/>
  <text x="570" y="470" class="component-title">Procesamiento Core</text>
  <text x="490" y="490" class="text">• Forma estándar</text>
  <text x="490" y="505" class="text">• Variables auxiliares</text>
  <text x="490" y="520" class="text">• Tabla simplex inicial</text>
  <text x="490" y="535" class="text">• Iteraciones simplex</text>
  <text x="490" y="550" class="text">• Verificación optimal</text>
  
  <rect x="680" y="450" width="180" height="120" class="backend"/>
  <text x="770" y="470" class="component-title">Construcción Resultado</text>
  <text x="690" y="490" class="text">• Extraer solución</text>
  <text x="690" y="505" class="text">• Calcular valores</text>
  <text x="690" y="520" class="text">• Interpretación contextual</text>
  <text x="690" y="535" class="text">• Formatear respuesta</text>
  <text x="690" y="550" class="text">• Enviar JSON</text>
  
  <!-- Final visualization -->
  <rect x="280" y="600" width="380" height="80" class="frontend"/>
  <text x="470" y="620" class="component-title">Visualización Final</text>
  <text x="290" y="640" class="text">• Renderizar tablas paso a paso</text>
  <text x="290" y="655" class="text">• Mostrar solución óptima</text>
  <text x="290" y="670" class="text">• Interpretación de transporte</text>
  
  <!-- Flow arrows -->
  <line x1="200" y1="385" x2="220" y2="385" class="arrow"/>
  <line x1="340" y1="385" x2="360" y2="385" class="arrow"/>
  <line x1="480" y1="385" x2="500" y2="385" class="arrow"/>
  <line x1="620" y1="385" x2="640" y2="385" class="arrow"/>
  <line x1="760" y1="385" x2="780" y2="385" class="arrow"/>
  
  <!-- Vertical flows -->
  <line x1="170" y1="410" x2="170" y2="450" class="arrow"/>
  <line x1="370" y1="410" x2="370" y2="450" class="arrow"/>
  <line x1="570" y1="410" x2="570" y2="450" class="arrow"/>
  <line x1="770" y1="410" x2="770" y2="450" class="arrow"/>
  
  <!-- To final visualization -->
  <line x1="470" y1="570" x2="470" y2="600" class="arrow"/>
  
  <!-- Error handling paths -->
  <rect x="100" y="720" width="800" height="80" stroke="#dc2626" stroke-width="2" fill="#fee2e2"/>
  <text x="500" y="740" class="component-title">Manejo de Errores y Casos Especiales</text>
  <text x="110" y="760" class="text">• Datos inválidos → Mensaje específico y corrección</text>
  <text x="110" y="775" class="text">• Problema infactible → Explicación y sugerencias</text>
  <text x="110" y="790" class="text">• Timeout de comunicación → Reintento automático</text>
  
  <!-- Performance considerations -->
  <rect x="100" y="820" width="800" height="80" stroke="#f59e0b" stroke-width="2" fill="#fef3c7"/>
  <text x="500" y="840" class="component-title">Consideraciones de Rendimiento</text>
  <text x="110" y="860" class="text">• Límites de dimensión: 10x10 para interfaz web</text>
  <text x="110" y="875" class="text">• Aritmética exacta: Fracciones para precisión numérica</text>
  <text x="110" y="890" class="text">• Renderizado diferido: Para tablas con muchas iteraciones</text>
</svg>
